<svg xmlns="http://www.w3.org/2000/svg" width="18.768" height="14.53" viewBox="0 0 18.768 14.53"><defs><style>.a{fill:#fff;}</style></defs><path class="a" d="M-263.215,391.5h-13.809a2.422,2.422,0,0,0-2.479,2.353v9.823a2.422,2.422,0,0,0,2.479,2.353h13.809a2.422,2.422,0,0,0,2.48-2.353v-9.823A2.422,2.422,0,0,0-263.215,391.5Zm-13.809,1.426h13.809a.973.973,0,0,1,.907.6l-7.813,5.188-7.81-5.186A.972.972,0,0,1-277.024,392.929Zm13.809,11.678h-13.809a.954.954,0,0,1-.976-.927v-8.457l7.449,4.947a.781.781,0,0,0,.431.128.782.782,0,0,0,.431-.128l7.451-4.948v8.458A.954.954,0,0,1-263.215,404.607Z" transform="translate(279.503 -391.503)"/></svg>