<svg xmlns="http://www.w3.org/2000/svg" width="13.42" height="22" viewBox="0 0 13.42 22"><defs><style>.a{fill:#fff;}</style></defs><path class="a" d="M-267.656,408.533h-4.152a.79.79,0,0,1-.8-.776v-7.445H-275a.79.79,0,0,1-.8-.776v-4.009a.79.79,0,0,1,.8-.776h2.39v-2.357a5.97,5.97,0,0,1,6.072-5.862h3.141a.789.789,0,0,1,.8.776v4.01a.79.79,0,0,1-.8.776h-3.141a.309.309,0,0,0-.313.3v2.357h4.467l-1.287,4.974a.8.8,0,0,1-.78.587h-2.4v7.444A.789.789,0,0,1-267.656,408.533Zm-3.453-1.451h2.754v-8.22H-265l.688-2.659h-4.045v-3.809a1.785,1.785,0,0,1,1.816-1.752h2.441v-2.658h-2.441a4.492,4.492,0,0,0-4.569,4.411V396.2H-274.3v2.658h3.192Z" transform="translate(275.805 -386.533)"/></svg>