<svg xmlns="http://www.w3.org/2000/svg" width="17.632" height="16.842" viewBox="0 0 17.632 16.842"><defs><style>.a{fill:#fff;}</style></defs><path class="a" d="M8.813,6.341a4.415,4.415,0,0,0-4.52,4.318,4.415,4.415,0,0,0,4.52,4.318,4.415,4.415,0,0,0,4.52-4.318A4.415,4.415,0,0,0,8.813,6.341Zm0,7.125a2.88,2.88,0,0,1-2.938-2.807A2.878,2.878,0,0,1,8.813,7.851a2.878,2.878,0,0,1,2.938,2.807,2.88,2.88,0,0,1-2.938,2.807Zm5.759-7.3a1.055,1.055,0,1,1-1.054-1.007A1.029,1.029,0,0,1,14.572,6.164Zm2.993,1.022a4.863,4.863,0,0,0-1.424-3.529A5.39,5.39,0,0,0,12.448,2.3c-1.455-.079-5.818-.079-7.273,0A5.383,5.383,0,0,0,1.481,3.654,4.879,4.879,0,0,0,.057,7.182c-.083,1.391-.083,5.558,0,6.949A4.863,4.863,0,0,0,1.481,17.66a5.4,5.4,0,0,0,3.694,1.36c1.455.079,5.818.079,7.273,0a5.355,5.355,0,0,0,3.694-1.36,4.895,4.895,0,0,0,1.424-3.529C17.648,12.741,17.648,8.577,17.565,7.186Zm-1.88,8.437a2.912,2.912,0,0,1-1.676,1.6c-1.16.44-3.914.338-5.2.338s-4.04.1-5.2-.338a2.912,2.912,0,0,1-1.676-1.6c-.46-1.109-.354-3.739-.354-4.964s-.1-3.86.354-4.964a2.912,2.912,0,0,1,1.676-1.6c1.16-.44,3.914-.338,5.2-.338s4.04-.1,5.2.338a2.912,2.912,0,0,1,1.676,1.6c.46,1.109.354,3.739.354,4.964S16.145,14.518,15.685,15.623Z" transform="translate(0.005 -2.238)"/></svg>