<svg xmlns="http://www.w3.org/2000/svg" width="18.086" height="17.332" viewBox="0 0 18.086 17.332"><defs><style>.a{fill:#fff;}</style></defs><path class="a" d="M-306.145,408.737c-.068,0-.138,0-.207-.009a17.853,17.853,0,0,1-7.539-2.557,16.754,16.754,0,0,1-5.229-5,16.118,16.118,0,0,1-2.673-7.226,2.239,2.239,0,0,1,.548-1.7,2.44,2.44,0,0,1,1.638-.825c.072-.006.147-.009.221-.009h2.5a2.411,2.411,0,0,1,2.412,1.989,9.229,9.229,0,0,0,.544,2.091,2.249,2.249,0,0,1-.546,2.44l-.649.62a12.334,12.334,0,0,0,3.94,3.769l.645-.616a2.5,2.5,0,0,1,2.554-.524,10.394,10.394,0,0,0,2.178.518,2.349,2.349,0,0,1,2.088,2.341v2.385a2.245,2.245,0,0,1-.7,1.635,2.459,2.459,0,0,1-1.708.683Zm-10.724-15.894h-2.518a.738.738,0,0,0-.08,0,.922.922,0,0,0-.622.313.844.844,0,0,0-.207.64,14.711,14.711,0,0,0,2.442,6.591,15.29,15.29,0,0,0,4.775,4.569,16.3,16.3,0,0,0,6.873,2.337l.069,0a.932.932,0,0,0,.65-.259.85.85,0,0,0,.267-.62v-2.413a.888.888,0,0,0-.788-.89,11.92,11.92,0,0,1-2.5-.6.945.945,0,0,0-.967.2l-1.057,1.01a.778.778,0,0,1-.9.116,13.8,13.8,0,0,1-5.285-5.055.694.694,0,0,1,.122-.863l1.06-1.014a.85.85,0,0,0,.2-.922,10.564,10.564,0,0,1-.625-2.4A.906.906,0,0,0-316.869,392.843Z" transform="translate(321.804 -391.405)"/></svg>