<svg xmlns="http://www.w3.org/2000/svg" width="76.424" height="80" viewBox="0 0 76.424 80"><defs><style>.a{fill:#192f3d;}</style></defs><path class="a" d="M-54.17,326.115a10.282,10.282,0,0,0-7.7-3.465H-75.545c.162-.791.326-1.577.487-2.356,1.767-8.514,3.293-15.868,2.337-19.734-.386-1.559-2.552-9.338-7.357-9.338-4.357,0-6.958,3.846-6.958,10.288a20.907,20.907,0,0,1-.582,4.5,33.847,33.847,0,0,1-14.1,20.531l-1.958,1.332a6.538,6.538,0,0,0-6.019-4h-11.779a6.537,6.537,0,0,0-6.532,6.53v34.291a6.537,6.537,0,0,0,6.532,6.53H-109.7a6.523,6.523,0,0,0,6.285-4.854A76.822,76.822,0,0,0-91.4,369.4c3.3.548,10.723.7,18.2.7,2.792,0,5.593-.023,8.188-.055a10.312,10.312,0,0,0,10.076-9.032l3.278-26.841A10.282,10.282,0,0,0-54.17,326.115Zm-52.31,38.577a3.224,3.224,0,0,1-3.22,3.22h-11.779a3.224,3.224,0,0,1-3.222-3.22V330.4a3.224,3.224,0,0,1,3.222-3.22H-109.7a3.224,3.224,0,0,1,3.22,3.22Zm51.532-30.917-3.278,26.841a6.992,6.992,0,0,1-6.833,6.123c-13.293.166-22.451-.05-25.8-.606a73.031,73.031,0,0,1-12.31-3.184V331.528l3.308-2.251a37.153,37.153,0,0,0,15.472-22.54,24.2,24.2,0,0,0,.662-5.227c0-2.1.354-6.978,3.649-6.978,1.355,0,3.214,3.061,4.145,6.823.774,3.136-.751,10.485-2.365,18.267-.3,1.435-.6,2.893-.9,4.355a1.655,1.655,0,0,0,.341,1.375,1.656,1.656,0,0,0,1.281.607h15.706a6.97,6.97,0,0,1,5.219,2.35A6.976,6.976,0,0,1-54.948,333.775Z" transform="translate(128.011 -291.222)"/></svg>