<svg xmlns="http://www.w3.org/2000/svg" width="84" height="80" viewBox="0 0 84 80"><defs><style>.a{fill:#192f3d;}</style></defs><g transform="translate(328.051 96.309)"><path class="a" d="M-245.4-26.7h-14.134V-91.115a5.225,5.225,0,0,0-5.223-5.194h-58.07a5.223,5.223,0,0,0-5.222,5.194v27.26A1.351,1.351,0,0,0-326.7-62.51h6.391v37.157a9.1,9.1,0,0,0,9.094,9.044h58.068a9.1,9.1,0,0,0,9.094-9.045A1.352,1.352,0,0,0-245.4-26.7Zm-74.907-64.417V-65.2h-5.039V-91.115a2.515,2.515,0,0,1,2.519-2.505A2.515,2.515,0,0,1-320.308-91.115ZM-246.9-24.009A6.43,6.43,0,0,1-253.145-19h-51.606a9.061,9.061,0,0,0,2.527-5.01ZM-318.262-93.62h53.5a2.521,2.521,0,0,1,2.52,2.505V-26.7h-41.231a1.352,1.352,0,0,0-1.352,1.344A6.379,6.379,0,0,1-311.212-19h0a6.382,6.382,0,0,1-6.391-6.355V-91.12A5.4,5.4,0,0,0-318.262-93.62Z" transform="translate(0 0)"/><path class="a" d="M-290.667-88.976h0a10.007,10.007,0,0,0-9.991,10,10.02,10.02,0,0,0,10,9.995h0a10.007,10.007,0,0,0,9.991-10A10.006,10.006,0,0,0-290.667-88.976Zm7.313,10a7.318,7.318,0,0,1-7.309,7.309,7.318,7.318,0,0,1-7.309-7.309,7.329,7.329,0,0,1,7.31-7.309A7.318,7.318,0,0,1-283.353-78.979Z" transform="translate(0.736 5.107)"/><path class="a" d="M-304.405-75.587v3.438a1.335,1.335,0,0,0,.743,1.2l3.293,1.646.811,3.247a1.341,1.341,0,0,0,1.3,1.017h1.541v10.193a1.345,1.345,0,0,0,1.344,1.344,1.353,1.353,0,0,0,.839-.294l3.968-3.175L-286.6-53.8a1.344,1.344,0,0,0,1.888-.211,1.347,1.347,0,0,0,.294-.839V-65.038h1.541a1.341,1.341,0,0,0,1.3-1.017l.811-3.247,3.294-1.646a1.336,1.336,0,0,0,.742-1.2v-3.439l1.7-2.55a1.341,1.341,0,0,0,0-1.49l-1.7-2.55v-3.43a1.336,1.336,0,0,0-.743-1.2l-3.293-1.645-.812-3.251a1.342,1.342,0,0,0-1.3-1.017h-4.4l-2.55-1.7a1.336,1.336,0,0,0-1.49,0l-2.55,1.7h-4.391a1.342,1.342,0,0,0-1.3,1.017l-.812,3.25-3.294,1.645a1.336,1.336,0,0,0-.742,1.2v3.439l-1.7,2.55a1.343,1.343,0,0,0,0,1.491Zm25.221-5.43,1.425,2.139-1.429,2.14a1.337,1.337,0,0,0-.226.745v3.015l-3.1,1.551a1.342,1.342,0,0,0-.7.875l-.707,2.829h-3.754a1.333,1.333,0,0,0-.744.226l-2.139,1.425-2.142-1.429a1.336,1.336,0,0,0-.745-.226h-3.756l-.707-2.83a1.347,1.347,0,0,0-.7-.874l-3.1-1.551V-76a1.341,1.341,0,0,0-.226-.744l-1.424-2.14,1.425-2.141h0a1.346,1.346,0,0,0,.225-.744v-3.013l3.1-1.551a1.342,1.342,0,0,0,.7-.875l.707-2.829h3.758a1.346,1.346,0,0,0,.745-.226l2.138-1.425,2.139,1.426a1.351,1.351,0,0,0,.745.225h3.758l.707,2.829a1.342,1.342,0,0,0,.7.875l3.1,1.551v3.015A1.346,1.346,0,0,0-279.184-81.018Zm-14.847,15.98h.173l2.55,1.7a1.338,1.338,0,0,0,1.49,0l2.55-1.7h.172l0,7.4-2.627-2.1a1.342,1.342,0,0,0-.839-.3,1.343,1.343,0,0,0-.84.3l-2.625,2.1Z" transform="translate(0.628 4.985)"/><path class="a" d="M-309.708-48.511h38.454a1.345,1.345,0,0,0,1.344-1.343,1.346,1.346,0,0,0-1.344-1.344h-38.454a1.346,1.346,0,0,0-1.344,1.344A1.345,1.345,0,0,0-309.708-48.511Z" transform="translate(0.534 6.712)"/><path class="a" d="M-309.708-42.844h32.686a1.345,1.345,0,0,0,1.344-1.343,1.346,1.346,0,0,0-1.344-1.344h-32.686a1.346,1.346,0,0,0-1.344,1.344A1.345,1.345,0,0,0-309.708-42.844Z" transform="translate(0.506 6.821)"/><path class="a" d="M-309.708-37.178h32.686a1.345,1.345,0,0,0,1.344-1.343,1.346,1.346,0,0,0-1.344-1.344h-32.686a1.346,1.346,0,0,0-1.344,1.344A1.345,1.345,0,0,0-309.708-37.178Z" transform="translate(0.506 6.929)"/><path class="a" d="M-271.9-45.53h-1.923a1.346,1.346,0,0,0-1.344,1.344,1.345,1.345,0,0,0,1.344,1.343h1.923a1.345,1.345,0,0,0,1.344-1.343A1.346,1.346,0,0,0-271.9-45.53Z" transform="translate(1.329 6.821)"/><path class="a" d="M-271.9-39.864h-1.923a1.346,1.346,0,0,0-1.344,1.344,1.345,1.345,0,0,0,1.344,1.343h1.923a1.345,1.345,0,0,0,1.344-1.343A1.346,1.346,0,0,0-271.9-39.864Z" transform="translate(1.329 6.929)"/><path class="a" d="M-295.585-78.092l2.418,2.418a1.388,1.388,0,0,0,.989.41,1.39,1.39,0,0,0,.989-.41l5.288-5.288a1.39,1.39,0,0,0,.41-.989,1.388,1.388,0,0,0-.41-.989,1.4,1.4,0,0,0-1.979,0l-4.3,4.3-1.429-1.428a1.431,1.431,0,0,0-1.979,0,1.388,1.388,0,0,0-.41.989A1.39,1.39,0,0,0-295.585-78.092Z" transform="translate(0.824 5.212)"/></g></svg>