<svg xmlns="http://www.w3.org/2000/svg" width="122" height="65" viewBox="0 0 122 65"><defs><style>.a{fill:#192f3d;}</style></defs><g transform="translate(125 -22) rotate(90)"><path class="a" d="M85.523,3H44.159a1.481,1.481,0,0,0-1.477,1.488V39.579L32.669,49.664a16.321,16.321,0,0,0-4.76,11.574V81.5a15.767,15.767,0,0,0,1.632,6.967,12.758,12.758,0,0,1,1.322,5.637v1.137H23.477A1.481,1.481,0,0,0,22,96.732v11.9a1.481,1.481,0,0,0,1.477,1.488h2.955v13.39a1.477,1.477,0,1,0,2.955,0v-13.39H64.841v13.39a1.477,1.477,0,1,0,2.955,0v-13.39H70.75a1.481,1.481,0,0,0,1.477-1.488v-11.9a1.481,1.481,0,0,0-1.477-1.488H63.364V91.221a19.232,19.232,0,0,0,2.955-10.267V77.39h19.2A1.481,1.481,0,0,0,87,75.9V4.488A1.481,1.481,0,0,0,85.523,3ZM69.273,107.146H24.955V98.22H69.273ZM63.364,80.954a16.266,16.266,0,0,1-2.706,9,1.5,1.5,0,0,0-.248.826v4.463H33.818V94.107a15.767,15.767,0,0,0-1.632-6.967A12.758,12.758,0,0,1,30.864,81.5V61.237a13.36,13.36,0,0,1,3.894-9.47l7.924-7.981V58.921l-4,4.027a1.494,1.494,0,0,0,0,2.1,1.468,1.468,0,0,0,2.089,0L52.959,52.777a3.208,3.208,0,0,1,4.559,0,3.259,3.259,0,0,1,0,4.591L46.808,68.155a1.494,1.494,0,0,0,0,2.1A11.8,11.8,0,0,1,48.976,83.7l-.229.458a1.492,1.492,0,0,0,.659,2,1.461,1.461,0,0,0,.66.158,1.476,1.476,0,0,0,1.322-.821l.229-.458a14.666,14.666,0,0,0,1.467-7.647H63.364ZM51.545,50.085V19.242a8.92,8.92,0,0,0,7.264-7.316H70.873a8.92,8.92,0,0,0,7.264,7.316V61.148a8.92,8.92,0,0,0-7.264,7.316H58.808a8.928,8.928,0,0,0-2.921-5.243l3.72-3.748a6.293,6.293,0,0,0,0-8.8,6.193,6.193,0,0,0-7.9-.689C51.656,50.022,51.6,50.046,51.545,50.085Zm32.5,24.33H52.574a15.376,15.376,0,0,0-2.684-5.154l3.893-3.92a5.952,5.952,0,0,1,2.2,4.611,1.481,1.481,0,0,0,1.477,1.488H72.227A1.481,1.481,0,0,0,73.7,69.951,5.936,5.936,0,0,1,79.614,64a1.481,1.481,0,0,0,1.477-1.488V17.878a1.481,1.481,0,0,0-1.477-1.488A5.936,5.936,0,0,1,73.7,10.439a1.481,1.481,0,0,0-1.477-1.488H57.455a1.481,1.481,0,0,0-1.477,1.488,5.936,5.936,0,0,1-5.909,5.951,1.481,1.481,0,0,0-1.477,1.488V52.969l-2.955,2.976V5.976H84.045Z" transform="translate(0 0)"/><path class="a" d="M46.485,30.939H46.7a4.222,4.222,0,0,0,7.813.627l1.448-2.894a1.268,1.268,0,0,1,2.4.566v.434A1.271,1.271,0,0,1,57.1,30.939h-.217a1.485,1.485,0,0,0,0,2.97H57.1a4.23,4.23,0,0,0,4.022-2.97h.215a1.485,1.485,0,1,0,0-2.97h-.215a4.222,4.222,0,0,0-7.813-.627l-1.448,2.894a1.268,1.268,0,0,1-2.4-.566v-.434a1.271,1.271,0,0,1,1.268-1.268h.217a1.485,1.485,0,1,0,0-2.97h-.217A4.23,4.23,0,0,0,46.7,27.97h-.215a1.485,1.485,0,0,0,0,2.97Z" transform="translate(10.912 10.737)"/></g></svg>