<svg xmlns="http://www.w3.org/2000/svg" width="98" height="80" viewBox="0 0 98 80"><defs><style>.a{fill:#192f3d;}</style></defs><g transform="translate(-315 -368)"><path class="a" d="M408.406,371.077h-7.734a3.824,3.824,0,0,0-7.5,0h-3.219a3.824,3.824,0,0,0-7.5,0H345.547a3.824,3.824,0,0,0-7.5,0h-3.219a3.824,3.824,0,0,0-7.5,0h-7.734A4.61,4.61,0,0,0,315,375.692v67.692A4.61,4.61,0,0,0,319.594,448h88.813A4.61,4.61,0,0,0,413,443.385V375.692A4.61,4.61,0,0,0,408.406,371.077Zm-85.75,67.692a4.61,4.61,0,0,1-4.594-4.615V386.462h91.875v32.308c0,3.926-4.038,6.348-7.656,7.268V394.154a1.533,1.533,0,0,0-1.531-1.538h-73.5a1.533,1.533,0,0,0-1.531,1.538v36.923a1.533,1.533,0,0,0,1.531,1.538h69.54c-1.148,3.152-3.4,6.154-6.759,6.154Zm64.313-9.231h-9.187v-9.231h9.187Zm-12.25,0h-9.188v-9.231h9.188Zm-12.25,0h-9.188v-9.231h9.188Zm-12.25,0h-9.188v-9.231h9.188Zm-12.25,0h-9.187v-9.231h9.188Zm3.063-33.846h9.188v9.231h-9.188Zm12.25,0h9.188v9.231h-9.188Zm12.25,0h9.188v9.231h-9.188Zm12.25,0h9.187v9.231h-9.187Zm12.25,0h9.188v9.231h-9.187ZM328.781,408h9.188v9.231h-9.187Zm12.25,0h9.188v9.231h-9.188Zm12.25,0h9.188v9.231h-9.188Zm12.25,0h9.188v9.231h-9.188Zm12.25,0h9.187v9.231h-9.187Zm12.25,0h9.188v9.231h-9.187Zm-52.063-3.077h-9.187v-9.231h9.188Zm52.063,15.385h9.188v6.154A1.533,1.533,0,0,0,397.688,428a11.212,11.212,0,0,1-.116,1.538h-7.54Zm10.639,9.151a16.867,16.867,0,0,0,8.779-3.637,16.917,16.917,0,0,1-12.4,12.457A17.033,17.033,0,0,0,400.67,429.458Zm-4.514-57.612a.766.766,0,1,1,1.531,0v4.615a.766.766,0,1,1-1.531,0Zm-10.719,0a.766.766,0,1,1,1.531,0v4.615a.766.766,0,1,1-1.531,0Zm-44.406,0a.766.766,0,1,1,1.531,0v4.615a.766.766,0,1,1-1.531,0Zm-10.719,0a.766.766,0,1,1,1.531,0v4.615a.766.766,0,1,1-1.531,0Zm-12.25,3.846a1.535,1.535,0,0,1,1.531-1.538h7.656v2.308a3.828,3.828,0,1,0,7.656,0v-2.308h3.063v2.308a3.828,3.828,0,1,0,7.656,0v-2.308h36.75v2.308a3.828,3.828,0,1,0,7.656,0v-2.308h3.063v2.308a3.828,3.828,0,1,0,7.656,0v-2.308h7.656a1.535,1.535,0,0,1,1.531,1.538v7.692H318.063Zm91.875,67.692a1.535,1.535,0,0,1-1.531,1.538H319.594a1.535,1.535,0,0,1-1.531-1.538v-3.117a7.554,7.554,0,0,0,4.594,1.578h70.438a19.874,19.874,0,0,0,16.844-9.391Z" transform="translate(0)"/></g></svg>